// Generated by generate_manta_mesh.py.
// Inspired by the original craft: rounded base, low dome, exposed driver.
SEQUENCE
FRAME
PATCH
17 3
  275     0  520
  254    86  520
  194   159  520
  105   208  520
    0   225  520
 -105   208  520
 -194   159  520
 -254    86  520
 -275     0  520
 -254   -86  520
 -194  -159  520
 -105  -208  520
    0  -225  520
  105  -208  520
  194  -159  520
  254   -86  520
  275     0  520
  790     0  440
  730   249  440
  559   460  440
  302   601  440
    0   650  440
 -302   601  440
 -559   460  440
 -730   249  440
 -790     0  440
 -730  -249  440
 -559  -460  440
 -302  -601  440
    0  -650  440
  302  -601  440
  559  -460  440
  730  -249  440
  790     0  440
 1100     0  300
 1016   344  300
  778   636  300
  421   831  300
    0   900  300
 -421   831  300
 -778   636  300
-1016   344  300
-1100     0  300
-1016  -344  300
 -778  -636  300
 -421  -831  300
    0  -900  300
  421  -831  300
  778  -636  300
 1016  -344  300
 1100     0  300
20
PATCH
17 2
 1100     0  300
 1016   344  300
  778   636  300
  421   831  300
    0   900  300
 -421   831  300
 -778   636  300
-1016   344  300
-1100     0  300
-1016  -344  300
 -778  -636  300
 -421  -831  300
    0  -900  300
  421  -831  300
  778  -636  300
 1016  -344  300
 1100     0  300
 1100     0   20
 1016   344   20
  778   636   20
  421   831   20
    0   900   20
 -421   831   20
 -778   636   20
-1016   344   20
-1100     0   20
-1016  -344   20
 -778  -636   20
 -421  -831   20
    0  -900   20
  421  -831   20
  778  -636   20
 1016  -344   20
 1100     0   20
20
PATCH
17 3
 1100     0   20
 1016   344   20
  778   636   20
  421   831   20
    0   900   20
 -421   831   20
 -778   636   20
-1016   344   20
-1100     0   20
-1016  -344   20
 -778  -636   20
 -421  -831   20
    0  -900   20
  421  -831   20
  778  -636   20
 1016  -344   20
 1100     0   20
  720     0   55
  665   226   55
  509   417   55
  276   545   55
    0   590   55
 -276   545   55
 -509   417   55
 -665   226   55
 -720     0   55
 -665  -226   55
 -509  -417   55
 -276  -545   55
    0  -590   55
  276  -545   55
  509  -417   55
  665  -226   55
  720     0   55
  260     0  120
  240    80  120
  184   148  120
   99   194  120
    0   210  120
  -99   194  120
 -184   148  120
 -240    80  120
 -260     0  120
 -240   -80  120
 -184  -148  120
  -99  -194  120
    0  -210  120
   99  -194  120
  184  -148  120
  240   -80  120
  260     0  120
20
PATCH
17 3
   45     0  900
   49   -17  900
   61   -32  900
   79   -42  900
  100   -45  900
  121   -42  900
  139   -32  900
  151   -17  900
  155     0  900
  151    17  900
  139    32  900
  121    42  900
  100    45  900
   79    42  900
   61    32  900
   49    17  900
   45     0  900
 -390     0  680
 -354  -145  680
 -252  -269  680
 -100  -351  680
   80  -380  680
  260  -351  680
  412  -269  680
  514  -145  680
  550     0  680
  514   145  680
  412   269  680
  260   351  680
   80   380  680
 -100   351  680
 -252   269  680
 -354   145  680
 -390     0  680
 -740     0  420
 -682  -233  420
 -517  -431  420
 -271  -564  420
   20  -610  420
  311  -564  420
  557  -431  420
  722  -233  420
  780     0  420
  722   233  420
  557   431  420
  311   564  420
   20   610  420
 -271   564  420
 -517   431  420
 -682   233  420
 -740     0  420
21
PATCH
13 2
  290     0  760
  262    85  760
  185   147  760
   80   170  760
  -25   147  760
 -102    85  760
 -130     0  760
 -102   -85  760
  -25  -147  760
   80  -170  760
  185  -147  760
  262   -85  760
  290     0  760
  225     0  820
  206    57  820
  152   100  820
   80   115  820
    8   100  820
  -46    57  820
  -65     0  820
  -46   -57  820
    7  -100  820
   80  -115  820
  152  -100  820
  206   -58  820
  225     0  820
20
PATCH
13 2
   15     0  790
   24   -29  790
   47   -50  790
   80   -58  790
  112   -50  790
  136   -29  790
  145     0  790
  136    29  790
  113    50  790
   80    58  790
   47    50  790
   24    29  790
   15     0  790
    8     0  930
   18   -32  930
   44   -55  930
   80   -64  930
  116   -55  930
  142   -32  930
  152     0  930
  142    32  930
  116    55  930
   80    64  930
   44    55  930
   18    32  930
    8     0  930
26
PATCH
13 4
   35     0  900
   41   -20  900
   57   -35  900
   80   -40  900
  102   -35  900
  119   -20  900
  125     0  900
  119    20  900
  103    35  900
   80    40  900
   57    35  900
   41    20  900
   35     0  900
  -70     0 1030
  -50   -67 1030
    5  -117 1030
   80  -135 1030
  155  -117 1030
  210   -67 1030
  230     0 1030
  210    67 1030
  155   117 1030
   80   135 1030
    5   117 1030
  -50    67 1030
  -70     0 1030
  -35     0 1170
  -20   -52 1170
   22   -91 1170
   80  -105 1170
  137   -91 1170
  180   -52 1170
  195     0 1170
  180    52 1170
  138    91 1170
   80   105 1170
   22    91 1170
  -20    52 1170
  -35     0 1170
   62     0 1250
   64    -8 1250
   71   -14 1250
   80   -16 1250
   89   -14 1250
   96    -8 1250
   98     0 1250
   96     8 1250
   89    14 1250
   80    16 1250
   71    14 1250
   64     8 1250
   62     0 1250
25
PATCH
17 3
 -620   690  780
 -620   673  864
 -620   626  936
 -620   554  983
 -620   470 1000
 -620   386  983
 -620   314  936
 -620   267  864
 -620   250  780
 -620   267  696
 -620   314  624
 -620   386  577
 -620   470  560
 -620   554  577
 -620   626  624
 -620   673  696
 -620   690  780
 -830   715  780
 -830   696  874
 -830   643  953
 -830   564 1006
 -830   470 1025
 -830   376 1006
 -830   297  953
 -830   244  874
 -830   225  780
 -830   244  686
 -830   297  607
 -830   376  554
 -830   470  535
 -830   564  554
 -830   643  607
 -830   696  686
 -830   715  780
-1050   665  780
-1050   650  855
-1050   608  918
-1050   545  960
-1050   470  975
-1050   395  960
-1050   332  918
-1050   290  855
-1050   275  780
-1050   290  705
-1050   332  642
-1050   395  600
-1050   470  585
-1050   545  600
-1050   608  642
-1050   650  705
-1050   665  780
22
PATCH
2 2
-1060   310  755
-1060   630  755
-1060   310  805
-1060   630  805
23
PATCH
2 2
-1060   445  625
-1060   495  625
-1060   445  935
-1060   495  935
23
PATCH
17 3
 -620  -250  780
 -620  -267  864
 -620  -314  936
 -620  -386  983
 -620  -470 1000
 -620  -554  983
 -620  -626  936
 -620  -673  864
 -620  -690  780
 -620  -673  696
 -620  -626  624
 -620  -554  577
 -620  -470  560
 -620  -386  577
 -620  -314  624
 -620  -267  696
 -620  -250  780
 -830  -225  780
 -830  -244  874
 -830  -297  953
 -830  -376 1006
 -830  -470 1025
 -830  -564 1006
 -830  -643  953
 -830  -696  874
 -830  -715  780
 -830  -696  686
 -830  -643  607
 -830  -564  554
 -830  -470  535
 -830  -376  554
 -830  -297  607
 -830  -244  686
 -830  -225  780
-1050  -275  780
-1050  -290  855
-1050  -332  918
-1050  -395  960
-1050  -470  975
-1050  -545  960
-1050  -608  918
-1050  -650  855
-1050  -665  780
-1050  -650  705
-1050  -608  642
-1050  -545  600
-1050  -470  585
-1050  -395  600
-1050  -332  642
-1050  -290  705
-1050  -275  780
22
PATCH
2 2
-1060  -630  755
-1060  -310  755
-1060  -630  805
-1060  -310  805
23
PATCH
2 2
-1060  -495  625
-1060  -445  625
-1060  -495  935
-1060  -445  935
23
SEQUENCE
FRAME
PATCH
2 3
-1050   320  780
-1050   620  780
-1290   395  780
-1290   545  780
-1530   460  780
-1530   480  780
24
PATCH
2 3
-1050   470  630
-1050   470  930
-1290   470  705
-1290   470  855
-1530   470  770
-1530   470  790
24
PATCH
2 2
-1015   370  680
-1015   570  680
-1065   370  880
-1065   570  880
24
PATCH
2 3
-1050  -620  780
-1050  -320  780
-1290  -545  780
-1290  -395  780
-1530  -480  780
-1530  -460  780
24
PATCH
2 3
-1050  -470  630
-1050  -470  930
-1290  -470  705
-1290  -470  855
-1530  -470  770
-1530  -470  790
24
PATCH
2 2
-1015  -570  680
-1015  -370  680
-1065  -570  880
-1065  -370  880
24
FRAME
PATCH
2 3
-1050   285  780
-1050   655  780
-1375   378  780
-1375   562  780
-1700   460  780
-1700   480  780
24
PATCH
2 3
-1050   470  595
-1050   470  965
-1375   470  688
-1375   470  872
-1700   470  770
-1700   470  790
24
PATCH
2 2
-1015   347  657
-1015   593  657
-1065   347  903
-1065   593  903
24
PATCH
2 3
-1050  -655  780
-1050  -285  780
-1375  -562  780
-1375  -378  780
-1700  -480  780
-1700  -460  780
24
PATCH
2 3
-1050  -470  595
-1050  -470  965
-1375  -470  688
-1375  -470  872
-1700  -470  770
-1700  -470  790
24
PATCH
2 2
-1015  -593  657
-1015  -347  657
-1065  -593  903
-1065  -347  903
24
